<svg width="24" height="24" viewBox="0 0 24 24" fill="none" xmlns="http://www.w3.org/2000/svg">
<path fill-rule="evenodd" clip-rule="evenodd" d="M14.058 4.65261C12.8608 3.67309 11.1392 3.67309 9.94198 4.65261L3.7673 9.70462C3.29799 10.0886 3.46708 10.8434 4.05535 10.9905C5.05131 11.2395 5.75 12.1343 5.75 13.1609V17.9997C5.75 19.7947 7.20507 21.2497 9 21.2497H15C16.7949 21.2497 18.25 19.7947 18.25 17.9997V13.1609C18.25 12.1343 18.9487 11.2395 19.9446 10.9905C20.5329 10.8434 20.702 10.0886 20.2327 9.70462L14.058 4.65261ZM8.99212 3.49167C10.7419 2.06007 13.2581 2.06007 15.0079 3.49167L21.1826 8.54368C22.6067 9.7089 22.0936 11.9994 20.3085 12.4457C19.9802 12.5277 19.75 12.8226 19.75 13.1609V17.9997C19.75 20.6231 17.6234 22.7497 15 22.7497H9C6.37665 22.7497 4.25 20.6231 4.25 17.9997V13.1609C4.25 12.8226 4.01976 12.5277 3.69155 12.4457C1.9064 11.9994 1.39329 9.7089 2.81744 8.54368L8.99212 3.49167Z" fill="black"/>
<path fill-rule="evenodd" clip-rule="evenodd" d="M12 14.75C11.3096 14.75 10.75 15.3096 10.75 16C10.75 16.6904 11.3096 17.25 12 17.25C12.6904 17.25 13.25 16.6904 13.25 16C13.25 15.3096 12.6904 14.75 12 14.75ZM9.25 16C9.25 14.4812 10.4812 13.25 12 13.25C13.5188 13.25 14.75 14.4812 14.75 16C14.75 17.5188 13.5188 18.75 12 18.75C10.4812 18.75 9.25 17.5188 9.25 16Z" fill="black"/>
</svg>
