<svg width="24" height="24" viewBox="0 0 24 24" fill="none" xmlns="http://www.w3.org/2000/svg">
<path fill-rule="evenodd" clip-rule="evenodd" d="M10 17.25C14.0041 17.25 17.25 14.0041 17.25 10C17.25 5.99594 14.0041 2.75 10 2.75C5.99594 2.75 2.75 5.99594 2.75 10C2.75 14.0041 5.99594 17.25 10 17.25ZM18.75 10C18.75 14.8325 14.8325 18.75 10 18.75C5.16751 18.75 1.25 14.8325 1.25 10C1.25 5.16751 5.16751 1.25 10 1.25C14.8325 1.25 18.75 5.16751 18.75 10Z" fill="black"/>
<path fill-rule="evenodd" clip-rule="evenodd" d="M18.2621 15.4697C18.555 15.1768 19.0299 15.1768 19.3228 15.4697L21.952 18.0989C23.016 19.1629 23.016 20.888 21.952 21.952C20.888 23.016 19.1629 23.016 18.0989 21.952L15.4697 19.3228C15.1768 19.0299 15.1768 18.555 15.4697 18.2621C15.7626 17.9692 16.2374 17.9692 16.5303 18.2621L19.1596 20.8913C19.6378 21.3696 20.4131 21.3696 20.8913 20.8913C21.3696 20.4131 21.3696 19.6378 20.8913 19.1596L18.2621 16.5303C17.9692 16.2374 17.9692 15.7626 18.2621 15.4697Z" fill="black"/>
</svg>
