<svg width="24" height="24" viewBox="0 0 24 24" fill="none" xmlns="http://www.w3.org/2000/svg">
<path fill-rule="evenodd" clip-rule="evenodd" d="M17.2983 17.2978C17.5912 17.0049 18.0661 17.0049 18.3589 17.2978L21.5305 20.4694C21.8234 20.7623 21.8234 21.2371 21.5305 21.53C21.2376 21.8229 20.7627 21.8229 20.4699 21.53L17.2983 18.3585C17.0054 18.0656 17.0054 17.5907 17.2983 17.2978Z" fill="black"/>
<path fill-rule="evenodd" clip-rule="evenodd" d="M15 11.75C13.2051 11.75 11.75 13.2051 11.75 15C11.75 16.7949 13.2051 18.25 15 18.25C16.7949 18.25 18.25 16.7949 18.25 15C18.25 13.2051 16.7949 11.75 15 11.75ZM10.25 15C10.25 12.3766 12.3766 10.25 15 10.25C17.6234 10.25 19.75 12.3766 19.75 15C19.75 17.6234 17.6234 19.75 15 19.75C12.3766 19.75 10.25 17.6234 10.25 15Z" fill="black"/>
<path fill-rule="evenodd" clip-rule="evenodd" d="M2.25 15C2.25 14.5858 2.58579 14.25 3 14.25H8C8.41421 14.25 8.75 14.5858 8.75 15C8.75 15.4142 8.41421 15.75 8 15.75H3C2.58579 15.75 2.25 15.4142 2.25 15Z" fill="black"/>
<path fill-rule="evenodd" clip-rule="evenodd" d="M2.25 11C2.25 10.5858 2.58579 10.25 3 10.25H8C8.41421 10.25 8.75 10.5858 8.75 11C8.75 11.4142 8.41421 11.75 8 11.75H3C2.58579 11.75 2.25 11.4142 2.25 11Z" fill="black"/>
<path fill-rule="evenodd" clip-rule="evenodd" d="M2.25 7C2.25 6.58579 2.58579 6.25 3 6.25H16C16.4142 6.25 16.75 6.58579 16.75 7C16.75 7.41421 16.4142 7.75 16 7.75H3C2.58579 7.75 2.25 7.41421 2.25 7Z" fill="black"/>
<path fill-rule="evenodd" clip-rule="evenodd" d="M2.25 3C2.25 2.58579 2.58579 2.25 3 2.25H16C16.4142 2.25 16.75 2.58579 16.75 3C16.75 3.41421 16.4142 3.75 16 3.75H3C2.58579 3.75 2.25 3.41421 2.25 3Z" fill="black"/>
</svg>
